# xmcd
#
# Track frame offsets:
#	150
#	12257
#	25942
#	41945
#	55722
#	70072
#	87042
#	101962
#	123752
#	135890
#	153307
#	174365
#
# Disc length: 2556 seconds
#
# Revision: 1
# Processed by: cddbd v1.5.2PL0 Copyright (c) Steve Scherf et al.
# Submitted via: audiograbber 1.83.01
#
DISCID=8e09fa0c
DTITLE=Derek Carle - Reason To Believe
DYEAR=2000
DGENRE=Country
TTITLE0=Show me what you know about love
TTITLE1=Let's be old fashioned
TTITLE2=Your Daddy would be proud
TTITLE3=By the time I get to Phoenix
TTITLE4=Are you ready to rock
TTITLE5=Give your love to me
TTITLE6=I've got you under my skin
TTITLE7=The wind beneath my wings
TTITLE8=She's not there
TTITLE9=We've gotta get out of this place
TTITLE10=He ain't heavy ... he's my brother
TTITLE11=Love changes everything
EXTD=
EXTT0=
EXTT1=
EXTT2=
EXTT3=
EXTT4=
EXTT5=
EXTT6=
EXTT7=
EXTT8=
EXTT9=
EXTT10=
EXTT11=
PLAYORDER=
